<svg xmlns="http://www.w3.org/2000/svg" width="1200" height="630" viewBox="0 0 1200 630" role="img" aria-label="AnyUI design system for Vue, React, and Svelte">
  <defs>
    <linearGradient id="brand" x1="96" y1="96" x2="328" y2="328" gradientUnits="userSpaceOnUse">
      <stop offset="0" stop-color="#55b5ff" />
      <stop offset="0.55" stop-color="#2f7df6" />
      <stop offset="1" stop-color="#2456e6" />
    </linearGradient>
    <linearGradient id="panel" x1="744" y1="156" x2="1072" y2="472" gradientUnits="userSpaceOnUse">
      <stop offset="0" stop-color="#ffffff" />
      <stop offset="1" stop-color="#edf5ff" />
    </linearGradient>
    <filter id="shadow" x="-20%" y="-20%" width="140%" height="140%" color-interpolation-filters="sRGB">
      <feDropShadow dx="0" dy="18" stdDeviation="24" flood-color="#0f2740" flood-opacity="0.14" />
    </filter>
  </defs>

  <rect width="1200" height="630" fill="#f8f8fa" />
  <path d="M0 514 C198 466 292 576 468 526 C644 476 694 336 890 374 C1008 397 1102 361 1200 302 V630 H0 Z" fill="#eaf4ff" />
  <path d="M0 567 C186 531 322 593 510 558 C702 523 746 431 930 456 C1042 471 1135 452 1200 422 V630 H0 Z" fill="#f2f7fc" />

  <g transform="translate(96 92) scale(0.57)">
    <rect x="-36" y="-36" width="584" height="584" rx="170" fill="#ffffff" filter="url(#shadow)" />
    <path
      fill="url(#brand)"
      d="M118.934,77.178C136.155,109.356,77.4,297.533,196,333c150.192,44.915,234.335-128.512,286-102,31.611,25.493,10.5,62-62,132C232.36,523.034,41.307,462.966,18,265c-6.406-75.776-4.113-131.212,19-172S101.712,45,118.934,77.178Zm69.5,81.788c13.388,1.421,67.454,28.819,67.454,28.819a650.051,650.051,0,0,1,58.905,34.341c29.67,18.68,45.308,33.425,39.061,42.022-7.059,10.141-34.909,2.011-51.663-1.166-37.18-11.042-55.574-17.58-92.064-32.854-27.858-12.962-39.754-23.143-43.168-26.665-2.868-2.426-19.973-17.957-11.425-32.223S175.043,157.546,188.43,158.966Z"
    />
  </g>

  <g font-family="Inter, ui-sans-serif, system-ui, -apple-system, BlinkMacSystemFont, 'Segoe UI', sans-serif">
    <text x="448" y="194" fill="#202426" font-size="88" font-weight="800" letter-spacing="0">AnyUI</text>
    <text x="452" y="260" fill="#2456e6" font-size="36" font-weight="700" letter-spacing="0">Cute design system for Vue, React and Svelte</text>
    <text x="452" y="327" fill="#596167" font-size="28" font-weight="500" letter-spacing="0">
      Shared tokens, consistent APIs, docs, live previews,
    </text>
    <text x="452" y="366" fill="#596167" font-size="28" font-weight="500" letter-spacing="0">
      and optional liquid glass styling.
    </text>
  </g>

  <g transform="translate(452 432)" font-family="Inter, ui-sans-serif, system-ui, -apple-system, BlinkMacSystemFont, 'Segoe UI', sans-serif" font-size="25" font-weight="700">
    <rect x="0" y="0" width="154" height="64" rx="18" fill="url(#panel)" stroke="#d7e7f8" />
    <text x="48" y="40" fill="#2f7df6">Vue</text>
    <rect x="178" y="0" width="168" height="64" rx="18" fill="url(#panel)" stroke="#d7e7f8" />
    <text x="220" y="40" fill="#2f7df6">React</text>
    <rect x="370" y="0" width="176" height="64" rx="18" fill="url(#panel)" stroke="#d7e7f8" />
    <text x="410" y="40" fill="#2f7df6">Svelte</text>
  </g>
</svg>
